<?xml version="1.0" encoding="UTF-8" standalone="no"?><svg xmlns="http://www.w3.org/2000/svg" xmlns:xlink="http://www.w3.org/1999/xlink" contentScriptType="application/ecmascript" contentStyleType="text/css" height="355px" preserveAspectRatio="none" style="width:605px;height:355px;" version="1.1" viewBox="0 0 605 355" width="605px" zoomAndPan="magnify"><defs><filter height="300%" id="frfcmc37fte9w" width="300%" x="-1" y="-1"><feGaussianBlur result="blurOut" stdDeviation="2.0"/><feColorMatrix in="blurOut" result="blurOut2" type="matrix" values="0 0 0 0 0 0 0 0 0 0 0 0 0 0 0 0 0 0 .4 0"/><feOffset dx="4.0" dy="4.0" in="blurOut2" result="blurOut3"/><feBlend in="SourceGraphic" in2="blurOut3" mode="normal"/></filter></defs><g><rect fill="#FEFECE" filter="url(#frfcmc37fte9w)" height="34.1328" rx="12.5" ry="12.5" style="stroke: #A80036; stroke-width: 1.5;" width="45" x="286.5" y="10"/><text fill="#000000" font-family="sans-serif" font-size="12" lengthAdjust="spacingAndGlyphs" textLength="25" x="296.5" y="31.6016">Web</text><line style="stroke: #A80036; stroke-width: 1.5;" x1="207" x2="517.5" y1="64.1328" y2="64.1328"/><rect fill="#FEFECE" filter="url(#frfcmc37fte9w)" height="34.1328" rx="12.5" ry="12.5" style="stroke: #A80036; stroke-width: 1.5;" width="52" x="181" y="97.9492"/><text fill="#000000" font-family="sans-serif" font-size="12" lengthAdjust="spacingAndGlyphs" textLength="32" x="191" y="119.5508">Client</text><line style="stroke: #A80036; stroke-width: 1.5;" x1="142" x2="400.5" y1="165.8984" y2="165.8984"/><rect fill="#FEFECE" filter="url(#frfcmc37fte9w)" height="34.1328" rx="12.5" ry="12.5" style="stroke: #A80036; stroke-width: 1.5;" width="52" x="116" y="187.3984"/><text fill="#000000" font-family="sans-serif" font-size="12" lengthAdjust="spacingAndGlyphs" textLength="32" x="126" y="209">React</text><line style="stroke: #A80036; stroke-width: 1.5;" x1="38.5" x2="230" y1="255.3477" y2="255.3477"/><rect fill="#FEFECE" filter="url(#frfcmc37fte9w)" height="34.1328" rx="12.5" ry="12.5" style="stroke: #A80036; stroke-width: 1.5;" width="57" x="10" y="276.8477"/><text fill="#000000" font-family="sans-serif" font-size="12" lengthAdjust="spacingAndGlyphs" textLength="37" x="20" y="298.4492">Redux</text><rect fill="#FEFECE" filter="url(#frfcmc37fte9w)" height="34.1328" rx="12.5" ry="12.5" style="stroke: #A80036; stroke-width: 1.5;" width="94" x="77" y="276.8477"/><text fill="#000000" font-family="sans-serif" font-size="12" lengthAdjust="spacingAndGlyphs" textLength="74" x="87" y="298.4492">React-router</text><rect fill="#FEFECE" filter="url(#frfcmc37fte9w)" height="34.1328" rx="12.5" ry="12.5" style="stroke: #A80036; stroke-width: 1.5;" width="93" x="183.5" y="276.8477"/><text fill="#000000" font-family="sans-serif" font-size="12" lengthAdjust="spacingAndGlyphs" textLength="73" x="193.5" y="298.4492">Antd-mobile</text><rect fill="#FEFECE" filter="url(#frfcmc37fte9w)" height="34.1328" rx="12.5" ry="12.5" style="stroke: #A80036; stroke-width: 1.5;" width="45" x="315.5" y="241.5313"/><text fill="#000000" font-family="sans-serif" font-size="12" lengthAdjust="spacingAndGlyphs" textLength="25" x="325.5" y="263.1328">Less</text><rect fill="#FEFECE" filter="url(#frfcmc37fte9w)" height="34.1328" rx="12.5" ry="12.5" style="stroke: #A80036; stroke-width: 1.5;" width="60" x="370.5" y="241.5313"/><text fill="#000000" font-family="sans-serif" font-size="12" lengthAdjust="spacingAndGlyphs" textLength="40" x="380.5" y="263.1328">History</text><rect fill="#FEFECE" filter="url(#frfcmc37fte9w)" height="34.1328" rx="12.5" ry="12.5" style="stroke: #A80036; stroke-width: 1.5;" width="56" x="489.5" y="84.1328"/><text fill="#000000" font-family="sans-serif" font-size="12" lengthAdjust="spacingAndGlyphs" textLength="36" x="499.5" y="105.7344">Server</text><line style="stroke: #A80036; stroke-width: 1.5;" x1="478" x2="569" y1="152.082" y2="152.082"/><rect fill="#FEFECE" filter="url(#frfcmc37fte9w)" height="34.1328" rx="12.5" ry="12.5" style="stroke: #A80036; stroke-width: 1.5;" width="51" x="452.5" y="173.582"/><text fill="#000000" font-family="sans-serif" font-size="12" lengthAdjust="spacingAndGlyphs" textLength="31" x="462.5" y="195.1836">eggjs</text><rect fill="#FEFECE" filter="url(#frfcmc37fte9w)" height="34.1328" rx="12.5" ry="12.5" style="stroke: #A80036; stroke-width: 1.5;" width="75" x="440.5" y="241.5313"/><text fill="#000000" font-family="sans-serif" font-size="12" lengthAdjust="spacingAndGlyphs" textLength="55" x="450.5" y="263.1328">sequelize</text><rect fill="#FEFECE" filter="url(#frfcmc37fte9w)" height="34.1328" rx="12.5" ry="12.5" style="stroke: #A80036; stroke-width: 1.5;" width="54" x="451" y="310.6641"/><text fill="#000000" font-family="sans-serif" font-size="12" lengthAdjust="spacingAndGlyphs" textLength="34" x="461" y="332.2656">mysql</text><rect fill="#FEFECE" filter="url(#frfcmc37fte9w)" height="34.1328" rx="12.5" ry="12.5" style="stroke: #A80036; stroke-width: 1.5;" width="51" x="543.5" y="241.5313"/><text fill="#000000" font-family="sans-serif" font-size="12" lengthAdjust="spacingAndGlyphs" textLength="31" x="553.5" y="263.1328">nginx</text><line style="stroke: #A80036; stroke-width: 1.5;" x1="38.5" x2="38.5" y1="256.8477" y2="276.8477"/><polygon fill="#A80036" points="34.5,266.8477,38.5,276.8477,42.5,266.8477,38.5,270.8477" style="stroke: #A80036; stroke-width: 1.0;"/><line style="stroke: #A80036; stroke-width: 1.5;" x1="124" x2="124" y1="256.8477" y2="276.8477"/><polygon fill="#A80036" points="120,266.8477,124,276.8477,128,266.8477,124,270.8477" style="stroke: #A80036; stroke-width: 1.0;"/><line style="stroke: #A80036; stroke-width: 1.5;" x1="230" x2="230" y1="256.8477" y2="276.8477"/><polygon fill="#A80036" points="226,266.8477,230,276.8477,234,266.8477,230,270.8477" style="stroke: #A80036; stroke-width: 1.0;"/><line style="stroke: #A80036; stroke-width: 1.5;" x1="142" x2="142" y1="221.5313" y2="255.3477"/><polygon fill="#A80036" points="138,245.3477,142,255.3477,146,245.3477,142,249.3477" style="stroke: #A80036; stroke-width: 1.0;"/><line style="stroke: #A80036; stroke-width: 1.5;" x1="142" x2="142" y1="167.3984" y2="187.3984"/><polygon fill="#A80036" points="138,177.3984,142,187.3984,146,177.3984,142,181.3984" style="stroke: #A80036; stroke-width: 1.0;"/><line style="stroke: #A80036; stroke-width: 1.5;" x1="338" x2="338" y1="167.3984" y2="241.5313"/><polygon fill="#A80036" points="334,231.5313,338,241.5313,342,231.5313,338,235.5313" style="stroke: #A80036; stroke-width: 1.0;"/><line style="stroke: #A80036; stroke-width: 1.5;" x1="400.5" x2="400.5" y1="167.3984" y2="241.5313"/><polygon fill="#A80036" points="396.5,231.5313,400.5,241.5313,404.5,231.5313,400.5,235.5313" style="stroke: #A80036; stroke-width: 1.0;"/><line style="stroke: #A80036; stroke-width: 1.5;" x1="207" x2="207" y1="132.082" y2="165.8984"/><polygon fill="#A80036" points="203,155.8984,207,165.8984,211,155.8984,207,159.8984" style="stroke: #A80036; stroke-width: 1.0;"/><line style="stroke: #A80036; stroke-width: 1.5;" x1="478" x2="478" y1="207.7148" y2="241.5313"/><polygon fill="#A80036" points="474,231.5313,478,241.5313,482,231.5313,478,235.5313" style="stroke: #A80036; stroke-width: 1.0;"/><line style="stroke: #A80036; stroke-width: 1.5;" x1="478" x2="478" y1="275.6641" y2="310.6641"/><polygon fill="#A80036" points="474,300.6641,478,310.6641,482,300.6641,478,304.6641" style="stroke: #A80036; stroke-width: 1.0;"/><line style="stroke: #A80036; stroke-width: 1.5;" x1="478" x2="478" y1="153.582" y2="173.582"/><polygon fill="#A80036" points="474,163.582,478,173.582,482,163.582,478,167.582" style="stroke: #A80036; stroke-width: 1.0;"/><line style="stroke: #A80036; stroke-width: 1.5;" x1="569" x2="569" y1="153.582" y2="241.5313"/><polygon fill="#A80036" points="565,231.5313,569,241.5313,573,231.5313,569,235.5313" style="stroke: #A80036; stroke-width: 1.0;"/><line style="stroke: #A80036; stroke-width: 1.5;" x1="517.5" x2="517.5" y1="118.2656" y2="152.082"/><polygon fill="#A80036" points="513.5,142.082,517.5,152.082,521.5,142.082,517.5,146.082" style="stroke: #A80036; stroke-width: 1.0;"/><line style="stroke: #A80036; stroke-width: 1.5;" x1="207" x2="207" y1="65.6328" y2="97.9492"/><polygon fill="#A80036" points="203,87.9492,207,97.9492,211,87.9492,207,91.9492" style="stroke: #A80036; stroke-width: 1.0;"/><line style="stroke: #A80036; stroke-width: 1.5;" x1="517.5" x2="517.5" y1="65.6328" y2="84.1328"/><polygon fill="#A80036" points="513.5,74.1328,517.5,84.1328,521.5,74.1328,517.5,78.1328" style="stroke: #A80036; stroke-width: 1.0;"/><line style="stroke: #A80036; stroke-width: 1.5;" x1="309" x2="309" y1="44.1328" y2="64.1328"/><polygon fill="#A80036" points="305,54.1328,309,64.1328,313,54.1328,309,58.1328" style="stroke: #A80036; stroke-width: 1.0;"/><!--
@startuml
:Web;
split
:Client;
  split
  :React;
    split
    :Redux;
    detach
    split again
    :React-router;
    detach
    split again
    :Antd-mobile;
    detach
    end split
  split again
  :Less;
  detach
  split again
  :History;
  detach
  end split
split again
:Server;
  split
  :eggjs;
  :sequelize;
  :mysql;
  detach
  split again
  :nginx;
  detach
  end split
end split
@enduml

PlantUML version 1.2018.12(Sun Oct 21 18:15:15 CST 2018)
(GPL source distribution)
Java Runtime: Java(TM) SE Runtime Environment
JVM: Java HotSpot(TM) 64-Bit Server VM
Java Version: 1.8.0_131-b11
Operating System: Mac OS X
OS Version: 10.14
Default Encoding: UTF-8
Language: en
Country: US
--></g></svg>