<?xml version="1.0" encoding="UTF-8" standalone="no"?><svg xmlns="http://www.w3.org/2000/svg" xmlns:xlink="http://www.w3.org/1999/xlink" contentScriptType="application/ecmascript" contentStyleType="text/css" height="424px" preserveAspectRatio="none" style="width:1392px;height:424px;" version="1.1" viewBox="0 0 1392 424" width="1392px" zoomAndPan="magnify"><defs><filter height="300%" id="fsjq52agqsnv3" width="300%" x="-1" y="-1"><feGaussianBlur result="blurOut" stdDeviation="2.0"/><feColorMatrix in="blurOut" result="blurOut2" type="matrix" values="0 0 0 0 0 0 0 0 0 0 0 0 0 0 0 0 0 0 .4 0"/><feOffset dx="4.0" dy="4.0" in="blurOut2" result="blurOut3"/><feBlend in="SourceGraphic" in2="blurOut3" mode="normal"/></filter></defs><g><rect fill="#FEFECE" filter="url(#fsjq52agqsnv3)" height="34.1328" rx="12.5" ry="12.5" style="stroke: #A80036; stroke-width: 1.5;" width="46" x="673" y="10"/><text fill="#000000" font-family="sans-serif" font-size="12" lengthAdjust="spacingAndGlyphs" textLength="26" x="683" y="31.6016">User</text><line style="stroke: #A80036; stroke-width: 1.5;" x1="128.5" x2="1026" y1="64.1328" y2="64.1328"/><rect fill="#FEFECE" filter="url(#fsjq52agqsnv3)" height="34.1328" rx="12.5" ry="12.5" style="stroke: #A80036; stroke-width: 1.5;" width="54" x="101.5" y="133.1328"/><text fill="#000000" font-family="sans-serif" font-size="12" lengthAdjust="spacingAndGlyphs" textLength="34" x="111.5" y="154.7344">Home</text><line style="stroke: #A80036; stroke-width: 1.5;" x1="63.5" x2="196" y1="202.2656" y2="202.2656"/><rect fill="#FEFECE" filter="url(#fsjq52agqsnv3)" height="48.2656" rx="12.5" ry="12.5" style="stroke: #A80036; stroke-width: 1.5;" width="107" x="10" y="223.7656"/><text fill="#000000" font-family="sans-serif" font-size="12" lengthAdjust="spacingAndGlyphs" textLength="87" x="20" y="245.3672">Recommended</text><text fill="#000000" font-family="sans-serif" font-size="12" lengthAdjust="spacingAndGlyphs" textLength="29" x="20" y="259.5">news</text><rect fill="#FEFECE" filter="url(#fsjq52agqsnv3)" height="48.2656" rx="12.5" ry="12.5" style="stroke: #A80036; stroke-width: 1.5;" width="102" x="145" y="223.7656"/><text fill="#000000" font-family="sans-serif" font-size="12" lengthAdjust="spacingAndGlyphs" textLength="50" x="155" y="245.3672">Followed</text><text fill="#000000" font-family="sans-serif" font-size="12" lengthAdjust="spacingAndGlyphs" textLength="82" x="155" y="259.5">people's news</text><line style="stroke: #A80036; stroke-width: 1.5;" x1="63.5" x2="196" y1="292.0313" y2="292.0313"/><rect fill="#FEFECE" filter="url(#fsjq52agqsnv3)" height="34.1328" rx="12.5" ry="12.5" style="stroke: #A80036; stroke-width: 1.5;" width="74" x="315" y="140.1992"/><text fill="#000000" font-family="sans-serif" font-size="12" lengthAdjust="spacingAndGlyphs" textLength="54" x="325" y="161.8008">New post</text><line style="stroke: #A80036; stroke-width: 1.5;" x1="279.5" x2="429.5" y1="209.332" y2="209.332"/><rect fill="#FEFECE" filter="url(#fsjq52agqsnv3)" height="34.1328" rx="12.5" ry="12.5" style="stroke: #A80036; stroke-width: 1.5;" width="45" x="257" y="230.832"/><text fill="#000000" font-family="sans-serif" font-size="12" lengthAdjust="spacingAndGlyphs" textLength="25" x="267" y="252.4336">Title</text><rect fill="#FEFECE" filter="url(#fsjq52agqsnv3)" height="34.1328" rx="12.5" ry="12.5" style="stroke: #A80036; stroke-width: 1.5;" width="64" x="312" y="230.832"/><text fill="#000000" font-family="sans-serif" font-size="12" lengthAdjust="spacingAndGlyphs" textLength="44" x="322" y="252.4336">Content</text><rect fill="#FEFECE" filter="url(#fsjq52agqsnv3)" height="34.1328" rx="12.5" ry="12.5" style="stroke: #A80036; stroke-width: 1.5;" width="61" x="399" y="230.832"/><text fill="#000000" font-family="sans-serif" font-size="12" lengthAdjust="spacingAndGlyphs" textLength="41" x="409" y="252.4336">Images</text><line style="stroke: #A80036; stroke-width: 1.5;" x1="279.5" x2="429.5" y1="284.9648" y2="284.9648"/><rect fill="#FEFECE" filter="url(#fsjq52agqsnv3)" height="34.1328" rx="12.5" ry="12.5" style="stroke: #A80036; stroke-width: 1.5;" width="64" x="534.5" y="133.1328"/><text fill="#000000" font-family="sans-serif" font-size="12" lengthAdjust="spacingAndGlyphs" textLength="44" x="544.5" y="154.7344">Explore</text><line style="stroke: #A80036; stroke-width: 1.5;" x1="499" x2="609.5" y1="202.2656" y2="202.2656"/><rect fill="#FEFECE" filter="url(#fsjq52agqsnv3)" height="34.1328" rx="12.5" ry="12.5" style="stroke: #A80036; stroke-width: 1.5;" width="58" x="470" y="230.832"/><text fill="#000000" font-family="sans-serif" font-size="12" lengthAdjust="spacingAndGlyphs" textLength="38" x="480" y="252.4336">Search</text><rect fill="#FEFECE" filter="url(#fsjq52agqsnv3)" height="48.2656" rx="12.5" ry="12.5" style="stroke: #A80036; stroke-width: 1.5;" width="107" x="556" y="223.7656"/><text fill="#000000" font-family="sans-serif" font-size="12" lengthAdjust="spacingAndGlyphs" textLength="87" x="566" y="245.3672">Recommended</text><text fill="#000000" font-family="sans-serif" font-size="12" lengthAdjust="spacingAndGlyphs" textLength="44" x="566" y="259.5">dreams</text><line style="stroke: #A80036; stroke-width: 1.5;" x1="499" x2="609.5" y1="292.0313" y2="292.0313"/><rect fill="#FEFECE" filter="url(#fsjq52agqsnv3)" height="34.1328" rx="12.5" ry="12.5" style="stroke: #A80036; stroke-width: 1.5;" width="36" x="1008" y="84.1328"/><text fill="#000000" font-family="sans-serif" font-size="12" lengthAdjust="spacingAndGlyphs" textLength="16" x="1018" y="105.7344">My</text><line style="stroke: #A80036; stroke-width: 1.5;" x1="846" x2="1337" y1="153.2656" y2="153.2656"/><rect fill="#FEFECE" filter="url(#fsjq52agqsnv3)" height="34.1328" rx="12.5" ry="12.5" style="stroke: #A80036; stroke-width: 1.5;" width="65" x="813.5" y="174.7656"/><text fill="#000000" font-family="sans-serif" font-size="12" lengthAdjust="spacingAndGlyphs" textLength="45" x="823.5" y="196.3672">Account</text><line style="stroke: #A80036; stroke-width: 1.5;" x1="737.5" x2="974.5" y1="243.8984" y2="243.8984"/><rect fill="#FEFECE" filter="url(#fsjq52agqsnv3)" height="34.1328" rx="12.5" ry="12.5" style="stroke: #A80036; stroke-width: 1.5;" width="77" x="699" y="265.3984"/><text fill="#000000" font-family="sans-serif" font-size="12" lengthAdjust="spacingAndGlyphs" textLength="57" x="709" y="287">Nickname</text><rect fill="#FEFECE" filter="url(#fsjq52agqsnv3)" height="34.1328" rx="12.5" ry="12.5" style="stroke: #A80036; stroke-width: 1.5;" width="57" x="786" y="265.3984"/><text fill="#000000" font-family="sans-serif" font-size="12" lengthAdjust="spacingAndGlyphs" textLength="37" x="796" y="287">Avatar</text><rect fill="#FEFECE" filter="url(#fsjq52agqsnv3)" height="34.1328" rx="12.5" ry="12.5" style="stroke: #A80036; stroke-width: 1.5;" width="75" x="871" y="265.3984"/><text fill="#000000" font-family="sans-serif" font-size="12" lengthAdjust="spacingAndGlyphs" textLength="55" x="881" y="287">Password</text><rect fill="#FEFECE" filter="url(#fsjq52agqsnv3)" height="34.1328" rx="12.5" ry="12.5" style="stroke: #A80036; stroke-width: 1.5;" width="37" x="956" y="265.3984"/><text fill="#000000" font-family="sans-serif" font-size="12" lengthAdjust="spacingAndGlyphs" textLength="17" x="966" y="287">Bio</text><line style="stroke: #A80036; stroke-width: 1.5;" x1="737.5" x2="974.5" y1="319.5313" y2="319.5313"/><rect fill="#FEFECE" filter="url(#fsjq52agqsnv3)" height="34.1328" rx="12.5" ry="12.5" style="stroke: #A80036; stroke-width: 1.5;" width="96" x="1095" y="174.7656"/><text fill="#000000" font-family="sans-serif" font-size="12" lengthAdjust="spacingAndGlyphs" textLength="76" x="1105" y="196.3672">Edit my page</text><line style="stroke: #A80036; stroke-width: 1.5;" x1="1025.5" x2="1258.5" y1="243.8984" y2="243.8984"/><rect fill="#FEFECE" filter="url(#fsjq52agqsnv3)" height="34.1328" rx="12.5" ry="12.5" style="stroke: #A80036; stroke-width: 1.5;" width="45" x="1003" y="265.3984"/><text fill="#000000" font-family="sans-serif" font-size="12" lengthAdjust="spacingAndGlyphs" textLength="25" x="1013" y="287">Title</text><rect fill="#FEFECE" filter="url(#fsjq52agqsnv3)" height="34.1328" rx="12.5" ry="12.5" style="stroke: #A80036; stroke-width: 1.5;" width="85" x="1058" y="265.3984"/><text fill="#000000" font-family="sans-serif" font-size="12" lengthAdjust="spacingAndGlyphs" textLength="65" x="1068" y="287">Description</text><rect fill="#FEFECE" filter="url(#fsjq52agqsnv3)" height="34.1328" rx="12.5" ry="12.5" style="stroke: #A80036; stroke-width: 1.5;" width="53" x="1171" y="265.3984"/><text fill="#000000" font-family="sans-serif" font-size="12" lengthAdjust="spacingAndGlyphs" textLength="33" x="1181" y="287">Cover</text><rect fill="#FEFECE" filter="url(#fsjq52agqsnv3)" height="34.1328" rx="12.5" ry="12.5" style="stroke: #A80036; stroke-width: 1.5;" width="49" x="1234" y="265.3984"/><text fill="#000000" font-family="sans-serif" font-size="12" lengthAdjust="spacingAndGlyphs" textLength="29" x="1244" y="287">Tiers</text><line style="stroke: #A80036; stroke-width: 1.5;" x1="1025.5" x2="1258.5" y1="319.5313" y2="319.5313"/><rect fill="#FEFECE" filter="url(#fsjq52agqsnv3)" height="34.1328" rx="12.5" ry="12.5" style="stroke: #A80036; stroke-width: 1.5;" width="86" x="1294" y="196.2656"/><text fill="#000000" font-family="sans-serif" font-size="12" lengthAdjust="spacingAndGlyphs" textLength="66" x="1304" y="217.8672">My backers</text><rect fill="#FEFECE" filter="url(#fsjq52agqsnv3)" height="34.1328" rx="12.5" ry="12.5" style="stroke: #A80036; stroke-width: 1.5;" width="88" x="1293" y="265.3984"/><text fill="#000000" font-family="sans-serif" font-size="12" lengthAdjust="spacingAndGlyphs" textLength="68" x="1303" y="287">Backers' list</text><line style="stroke: #A80036; stroke-width: 1.5;" x1="846" x2="1337" y1="339.5313" y2="339.5313"/><line style="stroke: #A80036; stroke-width: 1.5;" x1="128.5" x2="1026" y1="359.5313" y2="359.5313"/><rect fill="#FEFECE" filter="url(#fsjq52agqsnv3)" height="34.1328" rx="12.5" ry="12.5" style="stroke: #A80036; stroke-width: 1.5;" width="42" x="675" y="379.5313"/><text fill="#000000" font-family="sans-serif" font-size="12" lengthAdjust="spacingAndGlyphs" textLength="22" x="685" y="401.1328">End</text><line style="stroke: #A80036; stroke-width: 1.5;" x1="63.5" x2="63.5" y1="203.7656" y2="223.7656"/><polygon fill="#A80036" points="59.5,213.7656,63.5,223.7656,67.5,213.7656,63.5,217.7656" style="stroke: #A80036; stroke-width: 1.0;"/><line style="stroke: #A80036; stroke-width: 1.5;" x1="196" x2="196" y1="203.7656" y2="223.7656"/><polygon fill="#A80036" points="192,213.7656,196,223.7656,200,213.7656,196,217.7656" style="stroke: #A80036; stroke-width: 1.0;"/><line style="stroke: #A80036; stroke-width: 1.5;" x1="63.5" x2="63.5" y1="272.0313" y2="292.0313"/><polygon fill="#A80036" points="59.5,282.0313,63.5,292.0313,67.5,282.0313,63.5,286.0313" style="stroke: #A80036; stroke-width: 1.0;"/><line style="stroke: #A80036; stroke-width: 1.5;" x1="196" x2="196" y1="272.0313" y2="292.0313"/><polygon fill="#A80036" points="192,282.0313,196,292.0313,200,282.0313,196,286.0313" style="stroke: #A80036; stroke-width: 1.0;"/><line style="stroke: #A80036; stroke-width: 1.5;" x1="128.5" x2="128.5" y1="167.2656" y2="202.2656"/><polygon fill="#A80036" points="124.5,192.2656,128.5,202.2656,132.5,192.2656,128.5,196.2656" style="stroke: #A80036; stroke-width: 1.0;"/><line style="stroke: #A80036; stroke-width: 1.5;" x1="279.5" x2="279.5" y1="210.832" y2="230.832"/><polygon fill="#A80036" points="275.5,220.832,279.5,230.832,283.5,220.832,279.5,224.832" style="stroke: #A80036; stroke-width: 1.0;"/><line style="stroke: #A80036; stroke-width: 1.5;" x1="344" x2="344" y1="210.832" y2="230.832"/><polygon fill="#A80036" points="340,220.832,344,230.832,348,220.832,344,224.832" style="stroke: #A80036; stroke-width: 1.0;"/><line style="stroke: #A80036; stroke-width: 1.5;" x1="429.5" x2="429.5" y1="210.832" y2="230.832"/><polygon fill="#A80036" points="425.5,220.832,429.5,230.832,433.5,220.832,429.5,224.832" style="stroke: #A80036; stroke-width: 1.0;"/><line style="stroke: #A80036; stroke-width: 1.5;" x1="279.5" x2="279.5" y1="264.9648" y2="284.9648"/><polygon fill="#A80036" points="275.5,274.9648,279.5,284.9648,283.5,274.9648,279.5,278.9648" style="stroke: #A80036; stroke-width: 1.0;"/><line style="stroke: #A80036; stroke-width: 1.5;" x1="344" x2="344" y1="264.9648" y2="284.9648"/><polygon fill="#A80036" points="340,274.9648,344,284.9648,348,274.9648,344,278.9648" style="stroke: #A80036; stroke-width: 1.0;"/><line style="stroke: #A80036; stroke-width: 1.5;" x1="429.5" x2="429.5" y1="264.9648" y2="284.9648"/><polygon fill="#A80036" points="425.5,274.9648,429.5,284.9648,433.5,274.9648,429.5,278.9648" style="stroke: #A80036; stroke-width: 1.0;"/><line style="stroke: #A80036; stroke-width: 1.5;" x1="352" x2="352" y1="174.332" y2="209.332"/><polygon fill="#A80036" points="348,199.332,352,209.332,356,199.332,352,203.332" style="stroke: #A80036; stroke-width: 1.0;"/><line style="stroke: #A80036; stroke-width: 1.5;" x1="499" x2="499" y1="203.7656" y2="230.832"/><polygon fill="#A80036" points="495,220.832,499,230.832,503,220.832,499,224.832" style="stroke: #A80036; stroke-width: 1.0;"/><line style="stroke: #A80036; stroke-width: 1.5;" x1="609.5" x2="609.5" y1="203.7656" y2="223.7656"/><polygon fill="#A80036" points="605.5,213.7656,609.5,223.7656,613.5,213.7656,609.5,217.7656" style="stroke: #A80036; stroke-width: 1.0;"/><line style="stroke: #A80036; stroke-width: 1.5;" x1="499" x2="499" y1="264.9648" y2="292.0313"/><polygon fill="#A80036" points="495,282.0313,499,292.0313,503,282.0313,499,286.0313" style="stroke: #A80036; stroke-width: 1.0;"/><line style="stroke: #A80036; stroke-width: 1.5;" x1="609.5" x2="609.5" y1="272.0313" y2="292.0313"/><polygon fill="#A80036" points="605.5,282.0313,609.5,292.0313,613.5,282.0313,609.5,286.0313" style="stroke: #A80036; stroke-width: 1.0;"/><line style="stroke: #A80036; stroke-width: 1.5;" x1="566.5" x2="566.5" y1="167.2656" y2="202.2656"/><polygon fill="#A80036" points="562.5,192.2656,566.5,202.2656,570.5,192.2656,566.5,196.2656" style="stroke: #A80036; stroke-width: 1.0;"/><line style="stroke: #A80036; stroke-width: 1.5;" x1="737.5" x2="737.5" y1="245.3984" y2="265.3984"/><polygon fill="#A80036" points="733.5,255.3984,737.5,265.3984,741.5,255.3984,737.5,259.3984" style="stroke: #A80036; stroke-width: 1.0;"/><line style="stroke: #A80036; stroke-width: 1.5;" x1="814.5" x2="814.5" y1="245.3984" y2="265.3984"/><polygon fill="#A80036" points="810.5,255.3984,814.5,265.3984,818.5,255.3984,814.5,259.3984" style="stroke: #A80036; stroke-width: 1.0;"/><line style="stroke: #A80036; stroke-width: 1.5;" x1="908.5" x2="908.5" y1="245.3984" y2="265.3984"/><polygon fill="#A80036" points="904.5,255.3984,908.5,265.3984,912.5,255.3984,908.5,259.3984" style="stroke: #A80036; stroke-width: 1.0;"/><line style="stroke: #A80036; stroke-width: 1.5;" x1="974.5" x2="974.5" y1="245.3984" y2="265.3984"/><polygon fill="#A80036" points="970.5,255.3984,974.5,265.3984,978.5,255.3984,974.5,259.3984" style="stroke: #A80036; stroke-width: 1.0;"/><line style="stroke: #A80036; stroke-width: 1.5;" x1="737.5" x2="737.5" y1="299.5313" y2="319.5313"/><polygon fill="#A80036" points="733.5,309.5313,737.5,319.5313,741.5,309.5313,737.5,313.5313" style="stroke: #A80036; stroke-width: 1.0;"/><line style="stroke: #A80036; stroke-width: 1.5;" x1="814.5" x2="814.5" y1="299.5313" y2="319.5313"/><polygon fill="#A80036" points="810.5,309.5313,814.5,319.5313,818.5,309.5313,814.5,313.5313" style="stroke: #A80036; stroke-width: 1.0;"/><line style="stroke: #A80036; stroke-width: 1.5;" x1="908.5" x2="908.5" y1="299.5313" y2="319.5313"/><polygon fill="#A80036" points="904.5,309.5313,908.5,319.5313,912.5,309.5313,908.5,313.5313" style="stroke: #A80036; stroke-width: 1.0;"/><line style="stroke: #A80036; stroke-width: 1.5;" x1="974.5" x2="974.5" y1="299.5313" y2="319.5313"/><polygon fill="#A80036" points="970.5,309.5313,974.5,319.5313,978.5,309.5313,974.5,313.5313" style="stroke: #A80036; stroke-width: 1.0;"/><line style="stroke: #A80036; stroke-width: 1.5;" x1="846" x2="846" y1="208.8984" y2="243.8984"/><polygon fill="#A80036" points="842,233.8984,846,243.8984,850,233.8984,846,237.8984" style="stroke: #A80036; stroke-width: 1.0;"/><line style="stroke: #A80036; stroke-width: 1.5;" x1="1025.5" x2="1025.5" y1="245.3984" y2="265.3984"/><polygon fill="#A80036" points="1021.5,255.3984,1025.5,265.3984,1029.5,255.3984,1025.5,259.3984" style="stroke: #A80036; stroke-width: 1.0;"/><line style="stroke: #A80036; stroke-width: 1.5;" x1="1100.5" x2="1100.5" y1="245.3984" y2="265.3984"/><polygon fill="#A80036" points="1096.5,255.3984,1100.5,265.3984,1104.5,255.3984,1100.5,259.3984" style="stroke: #A80036; stroke-width: 1.0;"/><line style="stroke: #A80036; stroke-width: 1.5;" x1="1197.5" x2="1197.5" y1="245.3984" y2="265.3984"/><polygon fill="#A80036" points="1193.5,255.3984,1197.5,265.3984,1201.5,255.3984,1197.5,259.3984" style="stroke: #A80036; stroke-width: 1.0;"/><line style="stroke: #A80036; stroke-width: 1.5;" x1="1258.5" x2="1258.5" y1="245.3984" y2="265.3984"/><polygon fill="#A80036" points="1254.5,255.3984,1258.5,265.3984,1262.5,255.3984,1258.5,259.3984" style="stroke: #A80036; stroke-width: 1.0;"/><line style="stroke: #A80036; stroke-width: 1.5;" x1="1025.5" x2="1025.5" y1="299.5313" y2="319.5313"/><polygon fill="#A80036" points="1021.5,309.5313,1025.5,319.5313,1029.5,309.5313,1025.5,313.5313" style="stroke: #A80036; stroke-width: 1.0;"/><line style="stroke: #A80036; stroke-width: 1.5;" x1="1100.5" x2="1100.5" y1="299.5313" y2="319.5313"/><polygon fill="#A80036" points="1096.5,309.5313,1100.5,319.5313,1104.5,309.5313,1100.5,313.5313" style="stroke: #A80036; stroke-width: 1.0;"/><line style="stroke: #A80036; stroke-width: 1.5;" x1="1197.5" x2="1197.5" y1="299.5313" y2="319.5313"/><polygon fill="#A80036" points="1193.5,309.5313,1197.5,319.5313,1201.5,309.5313,1197.5,313.5313" style="stroke: #A80036; stroke-width: 1.0;"/><line style="stroke: #A80036; stroke-width: 1.5;" x1="1258.5" x2="1258.5" y1="299.5313" y2="319.5313"/><polygon fill="#A80036" points="1254.5,309.5313,1258.5,319.5313,1262.5,309.5313,1258.5,313.5313" style="stroke: #A80036; stroke-width: 1.0;"/><line style="stroke: #A80036; stroke-width: 1.5;" x1="1143" x2="1143" y1="208.8984" y2="243.8984"/><polygon fill="#A80036" points="1139,233.8984,1143,243.8984,1147,233.8984,1143,237.8984" style="stroke: #A80036; stroke-width: 1.0;"/><line style="stroke: #A80036; stroke-width: 1.5;" x1="1337" x2="1337" y1="230.3984" y2="265.3984"/><polygon fill="#A80036" points="1333,255.3984,1337,265.3984,1341,255.3984,1337,259.3984" style="stroke: #A80036; stroke-width: 1.0;"/><line style="stroke: #A80036; stroke-width: 1.5;" x1="846" x2="846" y1="154.7656" y2="174.7656"/><polygon fill="#A80036" points="842,164.7656,846,174.7656,850,164.7656,846,168.7656" style="stroke: #A80036; stroke-width: 1.0;"/><line style="stroke: #A80036; stroke-width: 1.5;" x1="1143" x2="1143" y1="154.7656" y2="174.7656"/><polygon fill="#A80036" points="1139,164.7656,1143,174.7656,1147,164.7656,1143,168.7656" style="stroke: #A80036; stroke-width: 1.0;"/><line style="stroke: #A80036; stroke-width: 1.5;" x1="1337" x2="1337" y1="154.7656" y2="196.2656"/><polygon fill="#A80036" points="1333,186.2656,1337,196.2656,1341,186.2656,1337,190.2656" style="stroke: #A80036; stroke-width: 1.0;"/><line style="stroke: #A80036; stroke-width: 1.5;" x1="846" x2="846" y1="321.0313" y2="339.5313"/><polygon fill="#A80036" points="842,329.5313,846,339.5313,850,329.5313,846,333.5313" style="stroke: #A80036; stroke-width: 1.0;"/><line style="stroke: #A80036; stroke-width: 1.5;" x1="1143" x2="1143" y1="321.0313" y2="339.5313"/><polygon fill="#A80036" points="1139,329.5313,1143,339.5313,1147,329.5313,1143,333.5313" style="stroke: #A80036; stroke-width: 1.0;"/><line style="stroke: #A80036; stroke-width: 1.5;" x1="1337" x2="1337" y1="299.5313" y2="339.5313"/><polygon fill="#A80036" points="1333,329.5313,1337,339.5313,1341,329.5313,1337,333.5313" style="stroke: #A80036; stroke-width: 1.0;"/><line style="stroke: #A80036; stroke-width: 1.5;" x1="1026" x2="1026" y1="118.2656" y2="153.2656"/><polygon fill="#A80036" points="1022,143.2656,1026,153.2656,1030,143.2656,1026,147.2656" style="stroke: #A80036; stroke-width: 1.0;"/><line style="stroke: #A80036; stroke-width: 1.5;" x1="128.5" x2="128.5" y1="65.6328" y2="133.1328"/><polygon fill="#A80036" points="124.5,123.1328,128.5,133.1328,132.5,123.1328,128.5,127.1328" style="stroke: #A80036; stroke-width: 1.0;"/><line style="stroke: #A80036; stroke-width: 1.5;" x1="352" x2="352" y1="65.6328" y2="140.1992"/><polygon fill="#A80036" points="348,130.1992,352,140.1992,356,130.1992,352,134.1992" style="stroke: #A80036; stroke-width: 1.0;"/><line style="stroke: #A80036; stroke-width: 1.5;" x1="566.5" x2="566.5" y1="65.6328" y2="133.1328"/><polygon fill="#A80036" points="562.5,123.1328,566.5,133.1328,570.5,123.1328,566.5,127.1328" style="stroke: #A80036; stroke-width: 1.0;"/><line style="stroke: #A80036; stroke-width: 1.5;" x1="1026" x2="1026" y1="65.6328" y2="84.1328"/><polygon fill="#A80036" points="1022,74.1328,1026,84.1328,1030,74.1328,1026,78.1328" style="stroke: #A80036; stroke-width: 1.0;"/><line style="stroke: #A80036; stroke-width: 1.5;" x1="128.5" x2="128.5" y1="293.5313" y2="359.5313"/><polygon fill="#A80036" points="124.5,349.5313,128.5,359.5313,132.5,349.5313,128.5,353.5313" style="stroke: #A80036; stroke-width: 1.0;"/><line style="stroke: #A80036; stroke-width: 1.5;" x1="352" x2="352" y1="286.4648" y2="359.5313"/><polygon fill="#A80036" points="348,349.5313,352,359.5313,356,349.5313,352,353.5313" style="stroke: #A80036; stroke-width: 1.0;"/><line style="stroke: #A80036; stroke-width: 1.5;" x1="566.5" x2="566.5" y1="293.5313" y2="359.5313"/><polygon fill="#A80036" points="562.5,349.5313,566.5,359.5313,570.5,349.5313,566.5,353.5313" style="stroke: #A80036; stroke-width: 1.0;"/><line style="stroke: #A80036; stroke-width: 1.5;" x1="1026" x2="1026" y1="341.0313" y2="359.5313"/><polygon fill="#A80036" points="1022,349.5313,1026,359.5313,1030,349.5313,1026,353.5313" style="stroke: #A80036; stroke-width: 1.0;"/><line style="stroke: #A80036; stroke-width: 1.5;" x1="696" x2="696" y1="44.1328" y2="64.1328"/><polygon fill="#A80036" points="692,54.1328,696,64.1328,700,54.1328,696,58.1328" style="stroke: #A80036; stroke-width: 1.0;"/><line style="stroke: #A80036; stroke-width: 1.5;" x1="696" x2="696" y1="361.0313" y2="379.5313"/><polygon fill="#A80036" points="692,369.5313,696,379.5313,700,369.5313,696,373.5313" style="stroke: #A80036; stroke-width: 1.0;"/><!--
@startuml
:User;
split
:Home;
  split
  :Recommended 
  news;
  split again
  :Followed
  people's news;
  end split
split again
:New post;
  split
  :Title;
  split again
  :Content;
  split again
  :Images;
  end split

split again
:Explore;
  split
  :Search;
  split again
  :Recommended
  dreams;
  end split
split again
:My;
  split
  :Account;
    split
    :Nickname;
    split again
    :Avatar;
    split again
    :Password;
    split again
    :Bio;
    end split
  split again
  :Edit my page;
    split
    :Title;
    split again
    :Description;
    split again
    :Cover;
    split again
    :Tiers;
    end split
  split again
  :My backers;
  :Backers' list;
  end split
end split
:End;
@enduml

PlantUML version 1.2018.12(Sun Oct 21 18:15:15 CST 2018)
(GPL source distribution)
Java Runtime: Java(TM) SE Runtime Environment
JVM: Java HotSpot(TM) 64-Bit Server VM
Java Version: 1.8.0_131-b11
Operating System: Mac OS X
OS Version: 10.14
Default Encoding: UTF-8
Language: en
Country: US
--></g></svg>